<svg width="64" height="64" viewBox="0 0 64 64" fill="none" xmlns="http://www.w3.org/2000/svg">
  <rect width="64" height="64" rx="16" fill="#0F172A" />
  <rect x="12" y="14" width="40" height="36" rx="10" fill="#111827" stroke="#334155" stroke-width="2" />
  <path d="M20 41L28.5 31.5L35 36L45 24" stroke="#2DD4BF" stroke-width="4" stroke-linecap="round" stroke-linejoin="round" />
  <circle cx="20" cy="41" r="3" fill="#F8FAFC" />
  <circle cx="28.5" cy="31.5" r="3" fill="#F8FAFC" />
  <circle cx="35" cy="36" r="3" fill="#F8FAFC" />
  <circle cx="45" cy="24" r="3" fill="#F8FAFC" />
  <path d="M8 24H12" stroke="#94A3B8" stroke-width="2" stroke-linecap="round" />
  <path d="M8 32H12" stroke="#94A3B8" stroke-width="2" stroke-linecap="round" />
  <path d="M8 40H12" stroke="#94A3B8" stroke-width="2" stroke-linecap="round" />
  <path d="M52 24H56" stroke="#94A3B8" stroke-width="2" stroke-linecap="round" />
  <path d="M52 32H56" stroke="#94A3B8" stroke-width="2" stroke-linecap="round" />
  <path d="M52 40H56" stroke="#94A3B8" stroke-width="2" stroke-linecap="round" />
  <path d="M24 8V14" stroke="#94A3B8" stroke-width="2" stroke-linecap="round" />
  <path d="M32 8V14" stroke="#94A3B8" stroke-width="2" stroke-linecap="round" />
  <path d="M40 8V14" stroke="#94A3B8" stroke-width="2" stroke-linecap="round" />
  <path d="M24 50V56" stroke="#94A3B8" stroke-width="2" stroke-linecap="round" />
  <path d="M32 50V56" stroke="#94A3B8" stroke-width="2" stroke-linecap="round" />
  <path d="M40 50V56" stroke="#94A3B8" stroke-width="2" stroke-linecap="round" />
</svg>
